<svg width="195" height="135" viewBox="0 0 195 135" fill="none" xmlns="http://www.w3.org/2000/svg">
<ellipse cx="82.6144" cy="67.3733" rx="65.5156" ry="66.3194" transform="rotate(-0.0470369 82.6144 67.3733)" stroke="black" stroke-width="2" stroke-miterlimit="2.9238"/>
<ellipse cx="82.6148" cy="67.7752" rx="81.593" ry="26.5278" transform="rotate(-0.0470369 82.6148 67.7752)" stroke="black" stroke-width="2" stroke-miterlimit="2.9238" stroke-dasharray="4 4"/>
<path d="M61.7512 63.7925L65.1153 64.8562C64.6012 66.7316 63.743 68.1268 62.5406 69.0419C61.346 69.9491 59.8269 70.4035 57.9831 70.405C55.7019 70.4069 53.8263 69.6311 52.3562 68.0776C50.8862 66.5163 50.1501 64.3841 50.1479 61.6809C50.1455 58.8216 50.882 56.6022 52.3572 55.0229C53.8325 53.4357 55.7732 52.6412 58.1795 52.6392C60.2811 52.6375 61.9886 53.2572 63.3021 54.4983C64.084 55.232 64.6708 56.2862 65.0625 57.6609L61.6296 58.484C61.4258 57.5936 60.9994 56.8908 60.3505 56.3757C59.7095 55.8606 58.928 55.6034 58.0061 55.6042C56.7327 55.6052 55.6979 56.0631 54.9018 56.9778C54.1135 57.8925 53.7202 59.3733 53.7219 61.4202C53.7236 63.5921 54.1155 65.1386 54.8975 66.0599C55.6795 66.9811 56.6956 67.4412 57.9456 67.4402C58.8674 67.4394 59.6602 67.1458 60.3237 66.5593C60.9873 65.9728 61.4631 65.0506 61.7512 63.7925ZM68.1524 52.924L71.6211 52.9211L71.6271 60.2336C72.4005 60.1549 72.9238 59.9552 73.197 59.6347C73.4701 59.3141 73.8913 58.4232 74.4604 56.9618C75.1776 55.1018 75.8993 53.945 76.6255 53.4912C77.3439 53.0375 78.5039 52.81 80.1054 52.8087C80.1835 52.8086 80.3515 52.8046 80.6093 52.7966L80.6114 55.363L80.1192 55.3517C79.4083 55.3522 78.8888 55.4425 78.5609 55.6225C78.2329 55.7946 77.9675 56.0605 77.7646 56.42C77.5618 56.7795 77.2616 57.5181 76.8641 58.6356C76.6537 59.2295 76.4236 59.7258 76.1739 60.1244C75.9321 60.5231 75.4988 60.8984 74.8741 61.2505C75.6477 61.4686 76.2848 61.9095 76.7853 62.5731C77.2937 63.2368 77.8491 64.1738 78.4517 65.3843L80.7993 70.0933L76.7212 70.0966L74.6667 65.6569C74.6354 65.5944 74.5689 65.4734 74.4672 65.2938C74.4281 65.2313 74.2834 64.9619 74.033 64.4856C73.587 63.6422 73.2193 63.1151 72.9301 62.9044C72.6487 62.6937 72.215 62.5847 71.6291 62.5774L71.6352 70.1008L68.1665 70.1037L68.1524 52.924ZM82.0462 61.6079C82.0448 59.8579 82.3053 58.3889 82.8278 57.201C83.2177 56.3257 83.7483 55.5401 84.4196 54.8442C85.0987 54.1483 85.8405 53.6321 86.6449 53.2955C87.7148 52.8415 88.949 52.6139 90.3475 52.6128C92.8787 52.6107 94.9028 53.3942 96.4197 54.9633C97.9444 56.5323 98.7079 58.7153 98.7102 61.5122C98.7125 64.2856 97.9604 66.4581 96.4539 68.0297C94.9473 69.5934 92.9323 70.3763 90.4089 70.3784C87.8542 70.3805 85.8223 69.6048 84.3132 68.0513C82.8042 66.4901 82.0485 64.3423 82.0462 61.6079ZM85.6204 61.4878C85.622 63.4331 86.0724 64.9093 86.9717 65.9163C87.8709 66.9156 89.0119 67.4147 90.3948 67.4135C91.7776 67.4124 92.91 66.9154 93.792 65.9225C94.6818 64.9217 95.1259 63.4253 95.1242 61.4331C95.1226 59.4643 94.6878 57.9959 93.8198 57.0279C92.9597 56.0599 91.8147 55.5764 90.385 55.5776C88.9554 55.5788 87.8034 56.0719 86.9292 57.057C86.055 58.0343 85.6187 59.5112 85.6204 61.4878ZM112.423 63.7509L115.787 64.8146C115.273 66.69 114.415 68.0852 113.212 69.0003C112.018 69.9075 110.499 70.3619 108.655 70.3634C106.374 70.3653 104.498 69.5895 103.028 68.036C101.558 66.4747 100.822 64.3425 100.82 61.6393C100.817 58.78 101.554 56.5606 103.029 54.9813C104.504 53.3941 106.445 52.5996 108.851 52.5976C110.953 52.5959 112.66 53.2156 113.974 54.4567C114.756 55.1904 115.343 56.2446 115.734 57.6193L112.301 58.4424C112.098 57.552 111.671 56.8492 111.022 56.3341C110.381 55.819 109.6 55.5618 108.678 55.5626C107.405 55.5636 106.37 56.0215 105.574 56.9362C104.785 57.8509 104.392 59.3317 104.394 61.3786C104.395 63.5505 104.787 65.097 105.569 66.0183C106.351 66.9395 107.367 67.3996 108.617 67.3986C109.539 67.3978 110.332 67.1042 110.996 66.5177C111.659 65.9312 112.135 65.009 112.423 63.7509Z" fill="black"/>
</svg>
